<?xml version="1.0" encoding="utf-8"?>
<!-- Generator: Adobe Illustrator 19.2.0, SVG Export Plug-In . SVG Version: 6.00 Build 0)  -->
<svg version="1.1" id="Layer_1" xmlns="http://www.w3.org/2000/svg" xmlns:xlink="http://www.w3.org/1999/xlink" x="0px" y="0px"
	 viewBox="0 0 24 24" style="enable-background:new 0 0 24 24;" xml:space="preserve">
<path style="fill:#404040;" d="M9.3,11.4c0-2.7,0-5.3,0-8c0,0,0-0.1,0-0.1c1.6,0.4,3.1,0.9,4.7,1.3C14.9,5,15.8,5.4,16.6,6
	c1.3,1,1.8,2.3,1.7,3.9c0,0.7-0.1,1.5-0.4,2.1c-0.2,0.6-0.6,1.1-1.3,1.3c-0.6,0.2-1.1,0.1-1.7,0c-0.2-0.1-0.4-0.2-0.7-0.3
	c0,0-0.1,0-0.1-0.1c0-1.9,0-3.9,0-5.8c0-0.5-0.4-0.9-0.8-1c-0.3,0-0.5,0.2-0.6,0.5c0,0.3,0,0.5,0,0.8c0,4.2,0,8.4,0,12.7
	c0,0.2,0,0.3,0,0.5c0,0,0,0.1-0.1,0c-1.1-0.4-2.3-0.8-3.4-1.2c0,0,0,0,0-0.1c0-1.7,0-3.4,0-5.1C9.3,13.3,9.3,12.4,9.3,11.4
	C9.3,11.4,9.3,11.4,9.3,11.4z"/>
<path style="fill:#404040;" d="M13.5,15.8c0-0.3,0-0.7,0-1c0,0,0-0.1,0.1-0.1c0.7-0.3,1.4-0.4,2.1-0.6c0.9-0.2,1.8-0.2,2.7-0.2
	c1.2,0.1,2.4,0.3,3.5,0.8c0.4,0.2,0.7,0.4,1,0.7c0.4,0.5,0.4,0.9-0.1,1.3c-0.5,0.4-1,0.7-1.6,0.9c-2.5,0.9-5,1.8-7.5,2.7
	c-0.1,0-0.1,0-0.1-0.1c0-0.7,0-1.3,0-2c0,0,0-0.1,0-0.1c1.7-0.6,3.4-1.2,5.1-1.9c0.3-0.1,0.5-0.2,0.8-0.3c0.1-0.1,0.2-0.1,0.3-0.2
	c0.1-0.1,0.1-0.3-0.1-0.4c-0.2-0.1-0.4-0.1-0.6-0.2c-0.7-0.1-1.4,0.1-2,0.3c-1.2,0.4-2.3,0.8-3.4,1.2c-0.1,0-0.1,0-0.1,0
	C13.5,16.5,13.5,16.2,13.5,15.8z"/>
<path style="fill:#404040;" d="M8.6,14.2c0,0.3,0,0.7,0,1c0,0,0,0.1,0,0.1c-1.3,0.5-2.5,1-3.8,1.4c-0.1,0-0.2,0.1-0.3,0.1
	c-0.1,0.1-0.1,0.3,0,0.4c0.2,0.1,0.3,0.2,0.5,0.2c0.4,0,0.8,0.1,1.2,0c0.6-0.1,1.1-0.3,1.6-0.5c0.2-0.1,0.4-0.2,0.6-0.2
	c0,0,0.1,0,0.1,0c0,0.6,0,1.2,0,1.8c0,0,0,0.1,0,0.1c-0.9,0.2-1.8,0.3-2.8,0.2c-0.7-0.1-1.4-0.2-2.1-0.4c-0.6-0.1-1.2-0.3-1.8-0.6
	c-0.2-0.1-0.3-0.2-0.4-0.3c-0.4-0.4-0.4-1,0-1.4c0.3-0.3,0.8-0.5,1.2-0.7c0.9-0.4,1.9-0.7,2.8-1.1c1-0.4,2.1-0.8,3.1-1.1
	c0.1,0,0.1,0,0.1,0C8.6,13.5,8.6,13.9,8.6,14.2C8.6,14.2,8.6,14.2,8.6,14.2z"/>
</svg>
