<?xml version="1.0" encoding="utf-8"?>
<!-- Generator: Adobe Illustrator 19.2.0, SVG Export Plug-In . SVG Version: 6.00 Build 0)  -->
<svg version="1.1" id="Layer_1" xmlns="http://www.w3.org/2000/svg" xmlns:xlink="http://www.w3.org/1999/xlink" x="0px" y="0px"
	 viewBox="0 0 24 24" style="enable-background:new 0 0 24 24;" xml:space="preserve">
<g>
	<path style="fill:#404040;" d="M2,11.7c0-0.3,0.1-0.5,0.1-0.8c0.2-2,1-3.8,2.3-5.3C4.5,5.3,4.7,5.2,4.9,5c0.2-0.2,0.4-0.2,0.7-0.2
		C6,5,6.5,5.2,6.9,5.5c0.5,0.3,2.1,1.6,2.4,2C9.1,7.7,8.9,8,8.7,8.2c-1.5,1.9-2.8,4-3.9,6.2C4.4,15.2,4.2,16,4,16.8
		c-0.1,0.4-0.1,0.8,0,1.2c0,0,0,0,0,0.1C4,18,4,17.9,3.9,17.9c-0.9-1.3-1.5-2.8-1.8-4.4c-0.1-0.4-0.1-0.7-0.1-1.1c0,0,0-0.1,0-0.1
		C2,12.1,2,11.9,2,11.7z"/>
	<path style="fill:#404040;" d="M22,13.1c0,0.3-0.1,0.5-0.1,0.8c-0.3,1.5-0.9,2.8-1.7,4.1c0,0-0.1,0.1-0.1,0.1c0-0.1,0-0.2,0-0.3
		c0.1-0.5,0-1.1-0.1-1.6c-0.2-0.9-0.7-1.8-1.1-2.7c-1.1-2.1-2.4-4.1-3.9-5.9c0,0-0.1-0.1-0.1-0.1c0,0,0,0,0,0
		c0.7-0.7,1.5-1.4,2.3-1.9c0.5-0.3,1-0.6,1.5-0.7c0.2,0,0.3,0,0.4,0.1c0.4,0.4,0.8,0.8,1.1,1.3c0.9,1.2,1.4,2.6,1.7,4.1
		c0,0.2,0,0.4,0.1,0.6c0,0.1,0,0.1,0,0.2C22,11.7,22,12.4,22,13.1z"/>
	<path style="fill:#404040;" d="M12.7,2c0.2,0,0.5,0,0.7,0.1c0.8,0.1,1.5,0.3,2.3,0.6c0.5,0.2,1,0.4,1.5,0.7c0,0-0.1,0-0.1,0
		c-1.2-0.1-2.4,0.3-3.5,0.7c-0.5,0.2-1,0.4-1.5,0.7c-0.1,0.1-0.2,0-0.3,0C11,4.4,10.2,4,9.3,3.7C8.7,3.5,8,3.3,7.2,3.4
		c-0.1,0-0.2,0-0.2,0c0,0,0,0,0,0c0,0,0.1-0.1,0.1-0.1C8.4,2.6,9.8,2.1,11.3,2c0.1,0,0.1,0,0.2,0C11.8,2,12.3,2,12.7,2z"/>
	<path style="fill:#404040;" d="M11.6,22c-1.4,0-3-0.4-4.4-1.2c-0.5-0.3-1-0.6-1.4-0.9c-0.6-0.4-0.8-1-0.6-1.7
		c0.1-0.5,0.4-1.1,0.7-1.5c0.6-1,1.3-2,2.1-2.9c1-1.2,2.1-2.3,3.3-3.3c0.1-0.1,0.3-0.2,0.4-0.3c0.2-0.1,0.2-0.1,0.4,0
		c0.3,0.3,0.7,0.6,1,0.9c1.2,1.1,2.3,2.2,3.3,3.4c0.7,0.9,1.4,1.8,1.9,2.9c0.2,0.4,0.3,0.7,0.4,1.1c0.1,0.5-0.1,0.9-0.5,1.2
		c-0.6,0.5-1.3,0.9-2,1.3C14.9,21.7,13.4,22,11.6,22z"/>
</g>
</svg>
