<svg xmlns="http://www.w3.org/2000/svg" style="display: none;"><symbol id="add-circle-outline" viewbox="0 0 24 24"><title>add-circle-outline icon</title><path d="M13 7h-2v4H7v2h4v4h2v-4h4v-2h-4V7zm-1-5C6.475 2 2 6.475 2 12s4.475 10 10 10 10-4.475 10-10S17.525 2 12 2zm0 18c-4.41 0-8-3.59-8-8s3.59-8 8-8 8 3.59 8 8-3.59 8-8 8z"/></symbol><symbol id="add-circle" viewbox="0 0 24 24"><title>add-circle icon</title><path d="M12 2C6.475 2 2 6.475 2 12s4.475 10 10 10 10-4.475 10-10S17.525 2 12 2zm5 11h-4v4h-2v-4H7v-2h4V7h2v4h4v2z"/></symbol><symbol id="add" viewbox="0 0 24 24"><title>add icon</title><path d="M19 13h-6v6h-2v-6H5v-2h6V5h2v6h6v2z"/></symbol><symbol id="apps" viewbox="0 0 24 24"><title>apps icon</title><path d="M4 8h4V4H4v4zm6 12h4v-4h-4v4zm-6 0h4v-4H4v4zm0-6h4v-4H4v4zm6 0h4v-4h-4v4zm6-10v4h4V4h-4zm-6 4h4V4h-4v4zm6 6h4v-4h-4v4zm0 6h4v-4h-4v4z"/></symbol><symbol id="arrow-back" viewbox="0 0 24 24"><title>arrow-back icon</title><path d="M20 11H7.83l5.585-5.585L12 4l-8 8 8 8 1.415-1.415L7.83 13H20v-2z"/></symbol><symbol id="arrow-down" viewbox="-287 189 24 24"><title>arrow-down icon</title><style>.st0{fill:#404040;}</style><path class="st0" d="M-276 193v12.2l-5.6-5.6-1.4 1.4 8 8 8-8-1.4-1.4-5.6 5.6V193h-2z"/></symbol><symbol id="arrow-drop-down" viewbox="0 0 24 24"><title>arrow-drop-down icon</title><path d="M7 10l5 5 5-5z"/></symbol><symbol id="arrow-drop-up" viewbox="0 0 24 24"><title>arrow-drop-up icon</title><path d="M7 14l5-5 5 5z"/></symbol><symbol id="arrow-forward" viewbox="0 0 24 24"><title>arrow-forward icon</title><path d="M12 4l-1.415 1.415L16.17 11H4v2h12.17l-5.585 5.585L12 20l8-8z"/></symbol><symbol id="arrow-up" viewbox="-287 189 24 24"><title>arrow-up icon</title><style>.st0{fill:#404040;}</style><path class="st0" d="M-274 209v-12.2l5.6 5.6 1.4-1.4-8-8-8 8 1.4 1.4 5.6-5.6V209h2z"/></symbol><symbol id="book" viewbox="0 0 24 24"><title>book icon</title><path d="M18 2H6c-1.105 0-2 .895-2 2v16c0 1.105.895 2 2 2h12c1.105 0 2-.895 2-2V4c0-1.105-.895-2-2-2zM6 4h5v8l-2.5-1.5L6 12V4z"/></symbol><symbol id="bookmark-outline-plus" viewbox="0 0 24 24"><title>bookmark-outline-plus icon</title><path d="M17 18V5H7v13l5-2.18L17 18m0-15a2 2 0 0 1 2 2v16l-7-3-7 3V5c0-1.11.9-2 2-2h10m-6 4h2v2h2v2h-2v2h-2v-2H9V9h2V7z"/></symbol><symbol id="bookmark-remove" viewbox="0 0 24 24"><title>bookmark-remove icon</title><path d="M17 3a2 2 0 0 1 2 2v16l-7-3-7 3V5c0-1.11.9-2 2-2h10M8.17 8.58 10.59 11l-2.42 2.41 1.42 1.42L12 12.41l2.41 2.42 1.42-1.42L13.41 11l2.42-2.42-1.42-1.41L12 9.58 9.59 7.17 8.17 8.58z"/></symbol><symbol id="check-box-outline-blank" viewbox="0 0 24 24"><title>check-box-outline-blank icon</title><path d="M19 5v14H5V5h14zm0-2H5c-1.1 0-2 .9-2 2v14c0 1.1.9 2 2 2h14c1.1 0 2-.9 2-2V5c0-1.1-.9-2-2-2z"/></symbol><symbol id="check-box" viewbox="0 0 24 24"><title>check-box icon</title><path d="M19 3H5c-1.11 0-2 .9-2 2v14c0 1.1.89 2 2 2h14c1.11 0 2-.9 2-2V5c0-1.1-.89-2-2-2zm-9 14-5-5 1.41-1.41L10 14.17l7.59-7.59L19 8l-9 9z"/></symbol><symbol id="check" viewbox="0 0 24 24"><title>check icon</title><path d="M9 16.17 4.83 12l-1.415 1.415L9 19 21 7l-1.415-1.415z"/></symbol><symbol id="chevron-left" viewbox="0 0 24 24"><title>chevron-left icon</title><path d="M15.415 7.415 14 6l-6 6 6 6 1.415-1.415L10.83 12z"/></symbol><symbol id="chevron-right" viewbox="0 0 24 24"><title>chevron-right icon</title><path d="M10 6 8.585 7.415 13.17 12l-4.585 4.585L10 18l6-6z"/></symbol><symbol id="close" viewbox="0 0 24 24"><title>close icon</title><path d="M19 6.415 17.585 5 12 10.585 6.415 5 5 6.415 10.585 12 5 17.585 6.415 19 12 13.415 17.585 19 19 17.585 13.415 12z"/></symbol><symbol id="delete" viewbox="0 0 24 24"><title>delete icon</title><path d="M6 19c0 1.105.895 2 2 2h8c1.105 0 2-.895 2-2V7H6v12zM19 4h-3.5l-1-1h-5l-1 1H5v2h14V4z"/></symbol><symbol id="do-not-disturb" viewbox="0 0 24 24"><title>do-not-disturb icon</title><path d="M12 2C6.475 2 2 6.475 2 12s4.475 10 10 10 10-4.475 10-10S17.525 2 12 2zm0 18c-4.42 0-8-3.58-8-8 0-1.85.635-3.545 1.685-4.9L16.9 18.315C15.545 19.365 13.85 20 12 20zm6.315-3.1L7.1 5.685C8.455 4.635 10.15 4 12 4c4.42 0 8 3.58 8 8 0 1.85-.635 3.545-1.685 4.9z"/></symbol><symbol id="done" viewbox="0 0 24 24"><title>done icon</title><path d="M9 16.17 4.83 12l-1.415 1.415L9 19 21 7l-1.415-1.415z"/></symbol><symbol id="edit" viewbox="0 0 24 24"><title>edit icon</title><path d="M3 17.25V21h3.75L17.815 9.935l-3.75-3.75L3 17.25zM20.705 7.045c.39-.39.39-1.025 0-1.415L18.37 3.295c-.39-.39-1.025-.39-1.415 0l-1.83 1.83 3.75 3.75 1.83-1.83z"/></symbol><symbol id="email" viewbox="0 0 24 24"><title>email icon</title><path d="M20 4H4c-1.105 0-1.99.895-1.99 2L2 18c0 1.105.895 2 2 2h16c1.105 0 2-.895 2-2V6c0-1.105-.895-2-2-2zm0 4-8 5-8-5V6l8 5 8-5v2z"/></symbol><symbol id="error" viewbox="0 0 24 24"><title>error icon</title><path d="M12 2C6.48 2 2 6.475 2 12s4.48 10 10 10 10-4.475 10-10S17.52 2 12 2zm1 15h-2v-2h2v2zm0-4h-2V7h2v6z"/></symbol><symbol id="file-image" viewbox="0 0 24 24"><title>file-image icon</title><path d="M13 9h5.5L13 3.5V9M6 2h8l6 6v12c0 1.1-.9 2-2 2H6c-1.1 0-2-.9-2-2V4c0-1.1.9-2 2-2m0 18h12v-8l-4 4-2-2-6 6M8 9c-1.1 0-2 .9-2 2s.9 2 2 2 2-.9 2-2-.9-2-2-2z"/></symbol><symbol id="file" viewbox="0 0 24 24"><title>file icon</title><path d="M14 2H6c-1.105 0-1.99.895-1.99 2L4 20c0 1.105.885 2 1.99 2H18c1.105 0 2-.895 2-2V8l-6-6zm2 16H8v-2h8v2zm0-4H8v-2h8v2zm-3-5V3.5L18.5 9H13z"/></symbol><symbol id="grid-on" viewbox="0 0 24 24"><title>grid-on icon</title><path d="M20 2H4c-1.105 0-2 .895-2 2v16c0 1.105.895 2 2 2h16c1.105 0 2-.895 2-2V4c0-1.105-.895-2-2-2zM8 20H4v-4h4v4zm0-6H4v-4h4v4zm0-6H4V4h4v4zm6 12h-4v-4h4v4zm0-6h-4v-4h4v4zm0-6h-4V4h4v4zm6 12h-4v-4h4v4zm0-6h-4v-4h4v4zm0-6h-4V4h4v4z"/></symbol><symbol id="help" viewbox="0 0 24 24"><title>help icon</title><path d="M12 2C6.475 2 2 6.475 2 12s4.475 10 10 10 10-4.475 10-10S17.525 2 12 2zm1 17h-2v-2h2v2zm2.065-7.745-.895.92C13.45 12.895 13 13.5 13 15h-2v-.5c0-1.105.45-2.105 1.17-2.83l1.245-1.26c.36-.36.585-.86.585-1.41 0-1.105-.895-2-2-2s-2 .895-2 2H8c0-2.21 1.79-4 4-4s4 1.79 4 4c0 .88-.355 1.675-.935 2.255z"/></symbol><symbol id="info-outline" viewbox="0 0 24 24"><title>info-outline icon</title><path d="M11 17h2v-6h-2v6zm1-15C6.475 2 2 6.475 2 12s4.475 10 10 10 10-4.475 10-10S17.525 2 12 2zm0 18c-4.41 0-8-3.59-8-8s3.59-8 8-8 8 3.59 8 8-3.59 8-8 8zM11 9h2V7h-2v2z"/></symbol><symbol id="info" viewbox="0 0 24 24"><title>info icon</title><path d="M12 2C6.475 2 2 6.475 2 12s4.475 10 10 10 10-4.475 10-10S17.525 2 12 2zm1 15h-2v-6h2v6zm0-8h-2V7h2v2z"/></symbol><symbol id="list" viewbox="0 0 24 24"><title>list icon</title><path d="M3 13h2v-2H3v2zm0 4h2v-2H3v2zm0-8h2V7H3v2zm4 4h14v-2H7v2zm0 4h14v-2H7v2zM7 7v2h14V7H7z"/></symbol><symbol id="menu" viewbox="0 0 24 24"><title>menu icon</title><path d="M3 18h18v-2H3v2zm0-5h18v-2H3v2zm0-7v2h18V6H3z"/></symbol><symbol id="more-horiz" viewbox="0 0 24 24"><title>more-horiz icon</title><path d="M6 10c-1.105 0-2 .895-2 2s.895 2 2 2 2-.895 2-2-.895-2-2-2zm12 0c-1.105 0-2 .895-2 2s.895 2 2 2 2-.895 2-2-.895-2-2-2zm-6 0c-1.105 0-2 .895-2 2s.895 2 2 2 2-.895 2-2-.895-2-2-2z"/></symbol><symbol id="more-vert" viewbox="0 0 24 24"><title>more-vert icon</title><path d="M12 8c1.105 0 2-.895 2-2s-.895-2-2-2-2 .895-2 2 .895 2 2 2zm0 2c-1.105 0-2 .895-2 2s.895 2 2 2 2-.895 2-2-.895-2-2-2zm0 6c-1.105 0-2 .895-2 2s.895 2 2 2 2-.895 2-2-.895-2-2-2z"/></symbol><symbol id="notifications" viewbox="0 0 24 24"><title>notifications icon</title><path d="M11.5 22c1.105 0 2-.895 2-2h-4c0 1.105.895 2 2 2zm6.5-6v-5.5c0-3.075-2.135-5.64-5-6.32V3.5c0-.83-.67-1.5-1.5-1.5S10 2.67 10 3.5v.68c-2.865.68-5 3.245-5 6.32V16l-2 2v1h17v-1l-2-2z"/></symbol><symbol id="pause" viewbox="0 0 24 24"><title>pause icon</title><path d="M6 19h4V5H6v14zm8-14v14h4V5h-4z"/></symbol><symbol id="people" viewbox="0 0 24 24"><title>people icon</title><path d="M16 11c1.655 0 2.99-1.345 2.99-3S17.655 5 16 5c-1.655 0-3 1.345-3 3s1.345 3 3 3zm-8 0c1.655 0 2.99-1.345 2.99-3S9.655 5 8 5C6.345 5 5 6.345 5 8s1.345 3 3 3zm0 2c-2.335 0-7 1.17-7 3.5V19h14v-2.5c0-2.33-4.665-3.5-7-3.5zm8 0c-.29 0-.615.02-.965.055C16.195 13.89 17 15.015 17 16.5V19h6v-2.5c0-2.33-4.665-3.5-7-3.5z"/></symbol><symbol id="platform-linux" viewbox="0 0 24 24"><title>platform-linux icon</title><path d="M11.6 2h1.2c1.2.3 1.9 1 2.2 2.2.2.6.3 1.2.3 1.9 0 1.3.3 2.6 1.2 3.6.6.8 1.1 1.7 1.6 2.5.6 1 .9 2.2.6 3.4-.1.3 0 .5.1.8.2.2.2.5.2.8 0 .5.3.8.7 1.1.2.1.5.2.6.5v.5c-.2.3-.5.5-.8.7-.7.4-1.4.7-2.1 1.2-.4.3-.8.7-1.3.9h-.9c-.3-.1-.5-.3-.7-.5-.1-.2-.3-.3-.6-.4-1.3-.2-2.6-.2-3.8.1-.2 0-.3.1-.4.2-.2.4-.7.5-1.2.4-.3-.1-.6-.1-.9-.2-.9-.3-1.9-.6-2.9-.8-.5-.1-.9-.2-1.2-.6v-.5c.2-.5.3-1 .2-1.5-.2-.8 0-1 .8-1.2.5-.1.9-.3 1.2-.7.3-.4.6-.8.5-1.3 0-.2.1-.4.2-.6.1-.3.3-.7.4-1 .4-1.4 1.1-2.7 2.1-3.8.4-.5.6-1 .6-1.7 0-1.1-.2-2.2-.1-3.3.1-1.3.6-2 1.9-2.4 0-.2.1-.3.3-.3zM9.9 8.4c-.1.6-.2 1.1-.5 1.5-.4.5-.6 1.1-.8 1.7-.1.4-.3.9-.5 1.3-.2.5-.4.9-.5 1.4-.2.9.1 1.6.8 2.2.5.3.9.7 1.3 1.1.4.4.4.7 0 1.1-.1.1-.1.2 0 .3.3.4.7.8 1.3.7h.6c1.2 0 2.2-.4 3.1-1.3.2-.2.3-.3.3-.6 0-.5.1-1 .1-1.5 0-.3.2-.6.5-.6s.4-.1.4-.4c.1-.8.1-1.6-.1-2.4-.5-1.6-1.2-3.1-1.9-4.6-.2-.3-.3-.4-.6-.2-.5.3-1 .6-1.6.8-.4.2-.7.2-1-.1-.4 0-.7-.2-.9-.4zM8.6 21.2c.2 0 .3 0 .5-.2.5-.4.6-.9.1-1.5-.6-.8-1.1-1.6-1.6-2.4-.1-.2-.3-.4-.4-.6-.4-.5-.7-.4-1 .1-.2.4-.5.7-1 .7-.1 0-.3.1-.4.1-.4.1-.5.3-.4.6.1.4 0 .8-.1 1.3s-.1.7.5.7c1 .2 2 .4 2.9.8.2.3.6.4.9.4zm6.8-.9c0 .3.1.7.4.9.4.2.7 0 1-.2.1-.1.3-.2.4-.3.3-.3.7-.6 1.1-.8.4-.2.9-.5 1.3-.7.3-.2.3-.3 0-.6-.1 0-.1-.1-.2-.1-.4-.2-.7-.6-.7-1 0-.1 0-.3-.1-.4 0-.2-.1-.2-.2-.1l-.2.2c-.4.4-.9.6-1.5.5-.5-.1-.7-.5-.7-1 0-.1 0-.1-.1-.1s-.1.1-.1.1v.6c.1.5 0 1-.1 1.5-.2.5-.3.9-.3 1.5zM11.5 6.7c-.4 0-.6.2-.8.4-.7.6-.7.7.1 1.2.2.2.4.3.8.2.6-.2 1-.6 1.6-.9.2-.1.2-.3 0-.4-.7-.2-1.2-.3-1.7-.5zm1.7 0c.6-.3.7-1.4.1-1.9-.3-.3-.8-.2-1.1.1-.2.3-.4.7-.3 1.1 0 .1.1.3.2.3.2 0 .1-.2.1-.3 0-.3.2-.6.5-.6s.5.3.5.7c.1.2.1.4 0 .6zm-3 .1c-.1-.1-.2-.2-.3-.4-.1-.3-.1-.5 0-.8.1-.1.2-.2.4-.1.3.1.3.3.4.6 0 .1 0 .2.1.2s.2-.1.2-.2c0-.4 0-.7-.3-1-.3-.3-.6-.3-.8 0-.3.4-.4 1.2 0 1.6 0 .1.1.2.3.1z"/></symbol><symbol id="platform-mac" viewbox="0 0 24 24"><title>platform-mac icon</title><path d="M20.1 17.6c-.3.7-.7 1.3-1.1 1.9-.6.8-1 1.4-1.4 1.7-.6.5-1.1.8-1.8.8-.5 0-1-.1-1.6-.4-.6-.3-1.2-.4-1.8-.4-.6 0-1.2.1-1.8.4-.7.2-1.2.4-1.6.4-.6 0-1.2-.2-1.8-.8-.4-.3-.9-.9-1.4-1.7-.6-.9-1.1-1.9-1.5-3-.4-1.2-.6-2.5-.6-3.6 0-1.3.3-2.5.9-3.5.5-.8 1.1-1.4 1.8-1.8.6-.6 1.4-.8 2.3-.8.5 0 1.1.1 1.9.4.8.3 1.3.4 1.5.4.2 0 .7-.2 1.7-.5.9-.3 1.7-.5 2.3-.4 1.7.1 2.9.8 3.8 2-1.5.9-2.2 2.2-2.2 3.8 0 1.3.5 2.3 1.4 3.2.4.4.9.7 1.4.9-.2.4-.3.7-.4 1zM16.2 2.4c0 1-.4 1.9-1.1 2.8-.9 1-1.9 1.6-3.1 1.5v-.4c0-1 .4-2 1.2-2.8.4-.4.8-.8 1.4-1.1.5-.2 1.1-.4 1.6-.4v.4z"/></symbol><symbol id="platform-pc" viewbox="0 0 24 24"><title>platform-pc icon</title><g><path d="M2 4.9l8.2-1.2v7.9H2M11.2 3.6 22 2v9.5H11.2M2 12.4h8.2v7.9L2 19.2M11.2 12.5H22V22l-10.8-1.5"/></g></symbol><symbol id="platform-ps" viewbox="0 0 24 24"><title>platform-ps icon</title><path d="M9.3 11.4v-8-.1c1.6.4 3.1.9 4.7 1.3.9.4 1.8.8 2.6 1.4 1.3 1 1.8 2.3 1.7 3.9 0 .7-.1 1.5-.4 2.1-.2.6-.6 1.1-1.3 1.3-.6.2-1.1.1-1.7 0-.2-.1-.4-.2-.7-.3 0 0-.1 0-.1-.1V7.1c0-.5-.4-.9-.8-1-.3 0-.5.2-.6.5v14s0 .1-.1 0c-1.1-.4-2.3-.8-3.4-1.2v-.1-5.1c.1-.9.1-1.8.1-2.8z"/><path d="M13.5 15.8v-1s0-.1.1-.1c.7-.3 1.4-.4 2.1-.6.9-.2 1.8-.2 2.7-.2 1.2.1 2.4.3 3.5.8.4.2.7.4 1 .7.4.5.4.9-.1 1.3s-1 .7-1.6.9l-7.5 2.7c-.1 0-.1 0-.1-.1v-2-.1c1.7-.6 3.4-1.2 5.1-1.9.3-.1.5-.2.8-.3.1-.1.2-.1.3-.2.1-.1.1-.3-.1-.4-.2-.1-.4-.1-.6-.2-.7-.1-1.4.1-2 .3-1.2.4-2.3.8-3.4 1.2h-.1c-.1-.1-.1-.4-.1-.8zM8.6 14.2v1.1c-1.3.5-2.5 1-3.8 1.4-.1 0-.2.1-.3.1-.1.1-.1.3 0 .4.2.1.3.2.5.2.4 0 .8.1 1.2 0 .6-.1 1.1-.3 1.6-.5.2-.1.4-.2.6-.2h.1V18.6c-.9.2-1.8.3-2.8.2-.7-.1-1.4-.2-2.1-.4-.6-.1-1.2-.3-1.8-.6-.2-.1-.3-.2-.4-.3-.4-.4-.4-1 0-1.4.3-.3.8-.5 1.2-.7.9-.4 1.9-.7 2.8-1.1 1-.4 2.1-.8 3.1-1.1h.1v1z"/></symbol><symbol id="platform-xbox" viewbox="0 0 24 24"><title>platform-xbox icon</title><g><path d="M2 11.7c0-.3.1-.5.1-.8.2-2 1-3.8 2.3-5.3.1-.3.3-.4.5-.6.2-.2.4-.2.7-.2.4.2.9.4 1.3.7.5.3 2.1 1.6 2.4 2-.2.2-.4.5-.6.7-1.5 1.9-2.8 4-3.9 6.2-.4.8-.6 1.6-.8 2.4-.1.4-.1.8 0 1.2v.1c0-.1 0-.2-.1-.2-.9-1.3-1.5-2.8-1.8-4.4-.1-.4-.1-.7-.1-1.1v-.1-.6zM22 13.1c0 .3-.1.5-.1.8-.3 1.5-.9 2.8-1.7 4.1l-.1.1v-.3c.1-.5 0-1.1-.1-1.6-.2-.9-.7-1.8-1.1-2.7-1.1-2.1-2.4-4.1-3.9-5.9l-.1-.1c.7-.7 1.5-1.4 2.3-1.9.5-.3 1-.6 1.5-.7.2 0 .3 0 .4.1.4.4.8.8 1.1 1.3.9 1.2 1.4 2.6 1.7 4.1 0 .2 0 .4.1.6v2.1zM12.7 2c.2 0 .5 0 .7.1.8.1 1.5.3 2.3.6.5.2 1 .4 1.5.7h-.1c-1.2-.1-2.4.3-3.5.7-.5.2-1 .4-1.5.7-.1.1-.2 0-.3 0-.8-.4-1.6-.8-2.5-1.1-.6-.2-1.3-.4-2.1-.3H7l.1-.1c1.3-.7 2.7-1.2 4.2-1.3h1.4zM11.6 22c-1.4 0-3-.4-4.4-1.2-.5-.3-1-.6-1.4-.9-.6-.4-.8-1-.6-1.7.1-.5.4-1.1.7-1.5.6-1 1.3-2 2.1-2.9 1-1.2 2.1-2.3 3.3-3.3.1-.1.3-.2.4-.3.2-.1.2-.1.4 0 .3.3.7.6 1 .9 1.2 1.1 2.3 2.2 3.3 3.4.7.9 1.4 1.8 1.9 2.9.2.4.3.7.4 1.1.1.5-.1.9-.5 1.2-.6.5-1.3.9-2 1.3-1.3.7-2.8 1-4.6 1z"/></g></symbol><symbol id="play-arrow" viewbox="0 0 24 24"><title>play-arrow icon</title><path d="M8 5v14l11-7z"/></symbol><symbol id="profile" viewbox="0 0 24 24"><title>profile icon</title><path d="M19 3h-4.185c-.41-1.16-1.51-2-2.815-2s-2.405.84-2.815 2H5c-1.105 0-2 .895-2 2v14c0 1.105.895 2 2 2h14c1.105 0 2-.895 2-2V5c0-1.105-.895-2-2-2zm-7 0c.55 0 1 .445 1 1s-.45 1-1 1-1-.445-1-1 .45-1 1-1zm0 4c1.655 0 3 1.345 3 3 0 1.66-1.345 3-3 3s-3-1.34-3-3c0-1.655 1.345-3 3-3zm6 12H6v-1.4c0-2 4-3.1 6-3.1s6 1.1 6 3.1V19z"/></symbol><symbol id="remove-circle-outline" viewbox="0 0 24 24"><title>remove-circle-outline icon</title><path d="M7 11v2h10v-2H7zm5-9C6.475 2 2 6.475 2 12s4.475 10 10 10 10-4.475 10-10S17.525 2 12 2zm0 18c-4.41 0-8-3.59-8-8s3.59-8 8-8 8 3.59 8 8-3.59 8-8 8z"/></symbol><symbol id="remove-circle" viewbox="0 0 24 24"><title>remove-circle icon</title><path d="M12 2C6.475 2 2 6.475 2 12s4.475 10 10 10 10-4.475 10-10S17.525 2 12 2zm5 11H7v-2h10v2z"/></symbol><symbol id="remove" viewbox="0 0 24 24"><title>remove icon</title><path d="M19 13H5v-2h14v2z"/></symbol><symbol id="search" viewbox="0 0 24 24"><title>search icon</title><path d="M15.5 14h-.795l-.275-.275C15.41 12.59 16 11.115 16 9.5 16 5.91 13.09 3 9.5 3S3 5.91 3 9.5 5.91 16 9.5 16c1.615 0 3.09-.59 4.225-1.565l.275.275v.79l5 4.99L20.49 19l-4.99-5zm-6 0C7.015 14 5 11.985 5 9.5S7.015 5 9.5 5 14 7.015 14 9.5 11.985 14 9.5 14z"/></symbol><symbol id="server" viewbox="0 0 24 24"><title>server icon</title><path d="M20 13H4c-.55 0-1 .45-1 1v6c0 .55.45 1 1 1h16c.55 0 1-.45 1-1v-6c0-.55-.45-1-1-1zM7 19c-1.105 0-2-.895-2-2s.895-2 2-2 2 .895 2 2-.895 2-2 2zM20 3H4c-.55 0-1 .45-1 1v6c0 .55.45 1 1 1h16c.55 0 1-.45 1-1V4c0-.55-.45-1-1-1zM7 9c-1.105 0-2-.895-2-2s.895-2 2-2 2 .895 2 2-.895 2-2 2z"/></symbol><symbol id="settings" viewbox="0 0 24 24"><title>settings icon</title><path d="M19.43 12.975c.04-.32.07-.645.07-.975s-.03-.655-.07-.975l2.115-1.655c.19-.15.245-.42.12-.64l-2-3.465c-.125-.215-.385-.305-.61-.215l-2.49 1.005c-.515-.395-1.08-.73-1.69-.985L14.5 2.42c-.045-.235-.25-.42-.5-.42h-4c-.25 0-.455.185-.495.42L9.13 5.07c-.61.255-1.175.585-1.69.985L4.95 5.05c-.225-.085-.485 0-.61.215l-2 3.465c-.125.215-.07.485.12.64l2.11 1.655c-.04.32-.07.645-.07.975s.03.655.07.975L2.46 14.63c-.19.15-.245.42-.12.64l2 3.465c.125.215.385.305.61.215l2.49-1.005c.515.395 1.08.73 1.69.985l.375 2.65c.04.235.245.42.495.42h4c.25 0 .455-.185.495-.42l.375-2.65c.61-.255 1.175-.585 1.69-.985l2.49 1.005c.225.085.485 0 .61-.215l2-3.465c.125-.215.07-.485-.12-.64l-2.11-1.655zM12 15.5c-1.935 0-3.5-1.565-3.5-3.5s1.565-3.5 3.5-3.5 3.5 1.565 3.5 3.5-1.565 3.5-3.5 3.5z"/></symbol><symbol id="share" viewbox="0 0 24 24"><title>share icon</title><path d="M18 16.078q1.22 0 2.063.867t.844 2.04q0 1.218-.867 2.085t-2.04.867-2.038-.867-.867-2.086q0-.47.047-.656l-7.078-4.125Q7.174 15 6 15q-1.218 0-2.108-.89T3.002 12t.89-2.11T6.002 9q1.17 0 2.062.797l7.03-4.078q-.093-.47-.093-.704 0-1.22.892-2.11t2.11-.89 2.108.89.89 2.11-.89 2.11-2.11.89q-1.124 0-2.062-.844l-7.03 4.125Q9 11.767 9 12t-.093.703l7.125 4.125q.844-.75 1.97-.75z"/></symbol><symbol id="star-outline" viewbox="0 0 24 24"><title>star-outline icon</title><path d="M22 9.24l-7.19-.62L12 2 9.19 8.63 2 9.24l5.46 4.73L5.82 21 12 17.27 18.18 21l-1.63-7.03L22 9.24zM12 15.4l-3.76 2.27 1-4.28-3.32-2.88 4.38-.38L12 6.1l1.71 4.04 4.38.38-3.32 2.88 1 4.28L12 15.4z"/></symbol><symbol id="star" viewbox="0 0 24 24"><title>star icon</title><path d="M12 17.27 18.18 21l-1.64-7.03L22 9.24l-7.19-.61L12 2 9.19 8.63 2 9.24l5.46 4.73L5.82 21z"/></symbol><symbol id="sync" viewbox="0 0 24 24"><title>sync icon</title><path d="M12 4V1L8 5l4 4V6c3.315 0 6 2.685 6 6 0 1.015-.255 1.965-.695 2.805l1.46 1.46C19.54 15.025 20 13.57 20 12c0-4.42-3.58-8-8-8zm0 14c-3.315 0-6-2.685-6-6 0-1.015.255-1.965.695-2.805l-1.46-1.46C4.46 8.975 4 10.43 4 12c0 4.42 3.58 8 8 8v3l4-4-4-4v3z"/></symbol><symbol id="thumb-down" viewbox="0 0 24 24"><title>thumb-down icon</title><path d="M15 3H6c-.83 0-1.54.505-1.84 1.22l-3.015 7.05c-.09.23-.145.475-.145.73v1.915l.01.01L1 14c0 1.105.895 2 2 2h6.315l-.955 4.57c-.02.1-.035.205-.035.315 0 .415.17.79.44 1.06L9.83 23l6.585-6.585c.36-.365.585-.865.585-1.415V5c0-1.105-.895-2-2-2zm4 0v12h4V3h-4z"/></symbol><symbol id="thumb-up" viewbox="0 0 24 24"><title>thumb-up icon</title><path d="M1 21h4V9H1v12zm22-11c0-1.105-.895-2-2-2h-6.315l.955-4.57c.02-.1.035-.205.035-.315 0-.415-.17-.79-.44-1.06L14.17 1 7.585 7.585C7.225 7.95 7 8.45 7 9v10c0 1.105.895 2 2 2h9c.83 0 1.54-.505 1.84-1.22l3.015-7.05c.09-.23.145-.475.145-.73v-1.915l-.01-.01L23 10z"/></symbol><symbol id="view-headline" viewbox="0 0 24 24"><title>view-headline icon</title><path d="M4 15h17v-2H4v2zm0 4h17v-2H4v2zm0-8h17V9H4v2zm0-6v2h17V5H4z"/></symbol><symbol id="view-list" viewbox="0 0 24 24"><title>view-list icon</title><path d="M4 14h4v-4H4v4zm0 5h4v-4H4v4zM4 9h4V5H4v4zm5 5h12v-4H9v4zm0 5h12v-4H9v4zM9 5v4h12V5H9z"/></symbol><symbol id="view-module" viewbox="0 0 24 24"><title>view-module icon</title><path d="M4 11h5V5H4v6zm0 7h5v-6H4v6zm6 0h5v-6h-5v6zm6 0h5v-6h-5v6zm-6-7h5V5h-5v6zm6-6v6h5V5h-5z"/></symbol><symbol id="warning-stop" viewbox="0 0 24 24"><title>warning-stop icon</title><path d="M15.73 3H8.27L3 8.27v7.455L8.27 21h7.455L21 15.73V8.27L15.73 3zM12 17.3c-.715 0-1.3-.58-1.3-1.3 0-.715.585-1.3 1.3-1.3s1.3.58 1.3 1.3c0 .72-.585 1.3-1.3 1.3zm1-4.3h-2V7h2v6z"/></symbol><symbol id="warning" viewbox="0 0 24 24"><title>warning icon</title><path d="M1 21h22L12 2 1 21zm12-3h-2v-2h2v2zm0-4h-2v-4h2v4z"/></symbol></svg>